<mxfile modified="2022-02-15T10:16:06.582Z" host="app.diagrams.net" agent="5.0 (Windows NT 10.0; Win64; x64) AppleWebKit/537.36 (KHTML, like Gecko) Chrome/98.0.4758.82 Safari/537.36" etag="rcrVNeo3Ind8yFGC8sWb" version="16.5.6" type="github">
  <diagram name="Page-1" id="97a40813-6b03-0c74-37c1-0168de264b11">
    <mxGraphModel dx="1074" dy="667" grid="1" gridSize="10" guides="1" tooltips="1" connect="1" arrows="1" fold="1" page="1" pageScale="1" pageWidth="500" pageHeight="300" background="#ffffff" math="0" shadow="0">
      <root>
        <mxCell id="0" />
        <mxCell id="1" parent="0" />
        <mxCell id="WbxlEiBp3W8eN1Y5aDUV-1" value=":CodeMirror" style="shape=umlLifeline;perimeter=lifelinePerimeter;whiteSpace=wrap;html=1;container=1;collapsible=0;recursiveResize=0;outlineConnect=0;" vertex="1" parent="1">
          <mxGeometry x="240" y="40" width="100" height="580" as="geometry" />
        </mxCell>
        <mxCell id="WbxlEiBp3W8eN1Y5aDUV-4" value="" style="html=1;points=[];perimeter=orthogonalPerimeter;" vertex="1" parent="WbxlEiBp3W8eN1Y5aDUV-1">
          <mxGeometry x="45" y="90" width="10" height="80" as="geometry" />
        </mxCell>
        <mxCell id="WbxlEiBp3W8eN1Y5aDUV-2" value=":PersistantCodeWidget&lt;br&gt;" style="shape=umlLifeline;perimeter=lifelinePerimeter;whiteSpace=wrap;html=1;container=1;collapsible=0;recursiveResize=0;outlineConnect=0;" vertex="1" parent="1">
          <mxGeometry x="400" y="40" width="140" height="580" as="geometry" />
        </mxCell>
        <mxCell id="WbxlEiBp3W8eN1Y5aDUV-3" value=":EditableContent" style="shape=umlLifeline;perimeter=lifelinePerimeter;whiteSpace=wrap;html=1;container=1;collapsible=0;recursiveResize=0;outlineConnect=0;" vertex="1" parent="1">
          <mxGeometry x="610" y="40" width="140" height="580" as="geometry" />
        </mxCell>
        <mxCell id="WbxlEiBp3W8eN1Y5aDUV-5" value=":Editor" style="shape=umlLifeline;perimeter=lifelinePerimeter;whiteSpace=wrap;html=1;container=1;collapsible=0;recursiveResize=0;outlineConnect=0;" vertex="1" parent="1">
          <mxGeometry x="80" y="40" width="100" height="580" as="geometry" />
        </mxCell>
        <mxCell id="WbxlEiBp3W8eN1Y5aDUV-6" value="" style="html=1;points=[];perimeter=orthogonalPerimeter;" vertex="1" parent="WbxlEiBp3W8eN1Y5aDUV-5">
          <mxGeometry x="45" y="90" width="10" height="80" as="geometry" />
        </mxCell>
      </root>
    </mxGraphModel>
  </diagram>
</mxfile>
